<?xml version="1.0" encoding="utf-8"?>
<!-- Generator: Adobe Illustrator 25.4.1, SVG Export Plug-In . SVG Version: 6.00 Build 0)  -->
<svg version="1.1" id="Layer_1" xmlns="http://www.w3.org/2000/svg" xmlns:xlink="http://www.w3.org/1999/xlink" x="0px" y="0px"
	 viewBox="0 0 44 44" style="enable-background:new 0 0 44 44;" xml:space="preserve">
<style type="text/css">
	.st0{fill:#0D3B69;}
	.st1{fill:#00AEEF;}
	.st2{fill:#FFFFFF;}
</style>
<g id="Layer_2_00000056387054598424508590000004882141230253109931_">
	<g id="Layer_1-2">
		<path class="st0" d="M31.2,3.2h1.1c4.7,0,8.5,3.7,8.5,8.4c0,0,0,0,0,0v20.8c0,4.7-3.8,8.4-8.5,8.4c0,0,0,0,0,0H7.9L31.2,3.2z"/>
		<path class="st1" d="M7.9,40.8H5.6c-1.3,0-2.3-1.1-2.3-2.3V5.6c0-1.3,1.1-2.3,2.3-2.3h18.4L7.9,40.8z"/>
		<polygon class="st2" points="8.3,40.8 7.7,40.8 23.9,3.2 31.2,3.2 		"/>
	</g>
</g>
</svg>
